Coordinates
version=1
nRows=15
nColumns=42
inDegrees=yes

Units are S.I. units (second, meters, Newtons, ...)
If the header above contains a line with 'inDegrees', this indicates whether rotational values are in degrees (yes) or radians (no).

endheader
time	pelvis_tilt	pelvis_list	pelvis_rotation	pelvis_tx	pelvis_ty	pelvis_tz	hip_flexion_r	hip_adduction_r	hip_rotation_r	knee_angle_r	knee_adduction_r	knee_angle_r_beta	ankle_angle_r	subtalar_angle_r	mtp_angle_r	hip_flexion_l	hip_adduction_l	hip_rotation_l	knee_angle_l	knee_adduction_l	knee_angle_l_beta	ankle_angle_l	subtalar_angle_l	mtp_angle_l	lumbar_extension	lumbar_bending	lumbar_rotation	arm_flex_r	arm_add_r	arm_rot_r	elbow_flex_r	pro_sup_r	wrist_flex_r	wrist_dev_r	arm_flex_l	arm_add_l	arm_rot_l	elbow_flex_l	pro_sup_l	wrist_flex_l	wrist_dev_l
      1.22000000	      2.42897312	      0.92499215	     -5.92100224	     -1.99186815	      0.92501997	      0.05890489	     -7.55716188	     -1.32644792	     -3.31812413	      8.57404473	      2.91366240	      0.14964531	     12.95783145	      6.08061462	     -7.53636878	     18.80471849	     -4.87890857	     -1.71407193	     19.95902010	      7.70288121	      0.34835062	     -5.73749864	    -19.27657976	     -7.53636878	    -14.48984814	     -3.39109411	     -0.67051915	      3.32968308	    -17.26390449	      8.95624145	     48.48952288	     90.00000001	      0.00000000	      0.00000000	    -17.10362456	     -7.02599397	    -19.24761829	     25.27680458	     90.00000001	      0.00000000	      0.00000000
      1.23000000	      2.46620508	      0.61773523	     -6.07969058	     -1.98070814	      0.92265977	      0.05824272	     -8.36272229	     -1.17557757	     -3.15718023	      8.63954914	      2.95160762	      0.15078858	     13.76845435	      6.34034421	     -7.53537886	     18.94884244	     -5.25459769	     -2.05092660	     17.00700289	      7.18398447	      0.29682820	     -6.23326198	    -19.20792981	     -7.53537886	    -14.57080024	     -3.15875655	     -0.41624261	      3.58009659	    -17.73267077	      9.26581505	     49.09881052	     90.00000001	      0.00000000	      0.00000000	    -17.58142205	     -6.83957692	    -19.45541007	     25.15546331	     90.00000001	      0.00000000	      0.00000000
      1.24000000	      2.50536306	      0.30054730	     -6.25415584	     -1.96947753	      0.92020431	      0.05753356	     -9.16039710	     -1.02506680	     -2.96037680	      8.74689040	      2.99077516	      0.15266204	     14.55708258	      6.54767314	     -7.53437457	     19.08725519	     -5.65090051	     -2.49635367	     14.24114775	      6.66035217	      0.24855492	     -6.71425814	    -19.10573625	     -7.53437457	    -14.65222057	     -2.91722820	     -0.12885644	      3.79016310	    -18.18898914	      9.51452755	     49.67036334	     90.00000001	      0.00000000	      0.00000000	    -17.98915957	     -6.65501022	    -19.63032110	     24.99165593	     90.00000001	      0.00000000	      0.00000000
      1.25000000	      2.52534723	     -0.03356385	     -6.48942337	     -1.95830044	      0.91768065	      0.05688014	     -9.87709488	     -0.86418447	     -2.70827098	      8.96566599	      3.01707554	      0.15648039	     15.19204262	      6.64783833	     -7.53379246	     19.27593934	     -6.10786131	     -3.23812939	     11.78497071	      6.14889414	      0.20568654	     -7.03403307	    -18.91141831	     -7.53379246	    -14.73498056	     -2.68158232	      0.23144956	      4.01191741	    -18.54969102	      9.56822647	     50.02341335	     90.00000001	      0.00000000	      0.00000000	    -18.34590992	     -6.50341894	    -19.69894857	     24.85680556	     90.00000001	      0.00000000	      0.00000000
      1.26000000	      2.57528124	     -0.37139013	     -6.62972099	     -1.94703486	      0.91513008	      0.05609732	    -10.68455739	     -0.70339935	     -2.44648432	      9.11829139	      3.08196426	      0.15914421	     15.93721859	      6.69615443	     -7.53318007	     19.43755150	     -6.52303866	     -3.87845014	      9.56715471	      5.65804865	      0.16697835	     -7.47130825	    -18.67340051	     -7.53318007	    -14.82463155	     -2.41773009	      0.52616212	      4.16696039	    -18.92903167	      9.64764053	     50.45324483	     90.00000001	      0.00000000	      0.00000000	    -18.59478890	     -6.40489228	    -19.76627694	     24.65642584	     90.00000001	      0.00000000	      0.00000000
      1.27000000	      2.57629199	     -0.71162630	     -6.75120264	     -1.93582844	      0.91253105	      0.05534264	    -11.41180151	     -0.50562858	     -2.20163839	      9.31164994	      3.09276193	      0.16251895	     16.61878819	      6.65232585	     -7.53226155	     19.71518547	     -6.97356370	     -4.67135417	      7.75212856	      5.26418476	      0.13530017	     -7.83654162	    -18.36439766	     -7.53226155	    -14.89490980	     -2.15949263	      0.78823328	      4.21701882	    -19.30136562	      9.78344204	     51.01372713	     90.00000001	      0.00000000	      0.00000000	    -18.73292489	     -6.32884265	    -19.86711961	     24.30817225	     90.00000001	      0.00000000	      0.00000000
      1.28000000	      2.56797197	     -1.05943563	     -6.89004402	     -1.92459815	      0.90994138	      0.05457600	    -12.08329456	     -0.32501553	     -1.97640115	      9.60930426	      3.13194561	      0.16771400	     17.11771120	      6.57803377	     -7.53169648	     20.03968611	     -7.46015751	     -5.69674485	      6.35973707	      4.95953734	      0.11099835	     -7.98977894	    -17.80629872	     -7.53169648	    -14.95496241	     -1.90492961	      1.08888290	      4.30792952	    -19.58807507	      9.76322983	     51.25503274	     90.00000001	      0.00000000	      0.00000000	    -18.83327372	     -6.28293655	    -19.90031621	     24.09860338	     90.00000001	      0.00000000	      0.00000000
      1.29000000	      2.53916976	     -1.38195877	     -7.01445686	     -1.91332918	      0.90736493	      0.05378265	    -12.76071564	     -0.16673144	     -1.59401040	      9.85119817	      3.18439983	      0.17193584	     17.66564903	      6.27091885	     -7.53053047	     20.42145158	     -7.93695860	     -6.86737270	      5.40468825	      4.75884615	      0.09432960	     -8.02951964	    -16.94728377	     -7.53053047	    -14.98778798	     -1.67509036	      1.37844354	      4.27058032	    -19.87509379	      9.74983294	     51.65655275	     90.00000001	      0.00000000	      0.00000000	    -18.72093619	     -6.27136992	    -19.98550838	     23.50998234	     90.00000001	      0.00000000	      0.00000000
      1.30000000	      2.41717528	     -1.68198212	     -6.96110635	     -1.90193434	      0.90472770	      0.05277693	    -13.32326651	     -0.03170764	     -1.61205902	     10.14657621	      3.29102477	      0.17709116	     17.75753099	      6.23672302	     -7.53034097	     20.98475019	     -8.28729177	     -7.48385610	      4.92790254	      4.55366073	      0.08600812	     -7.97191930	    -16.62959002	     -7.53034097	    -14.89687624	     -1.43667984	      1.41643373	      4.30138074	    -20.00785144	      9.68664890	     51.67363788	     90.00000001	      0.00000000	      0.00000000	    -18.82541970	     -6.33379851	    -19.98983889	     23.49931204	     90.00000001	      0.00000000	      0.00000000
      1.31000000	      2.43405864	     -1.95680792	     -7.22442395	     -1.89037219	      0.90240579	      0.05201966	    -13.94487032	      0.03361528	     -1.21633180	     10.60661082	      3.24577056	      0.18512028	     18.19883824	      6.08461199	     -7.53003127	     21.08335291	     -8.79637523	     -8.37103104	      4.41524989	      4.65217909	      0.07706065	     -8.17140209	    -15.96576752	     -7.53003127	    -14.94270286	     -1.30347497	      1.83634456	      4.32742056	    -20.16760343	      9.61267143	     51.63790229	     90.00000001	      0.00000000	      0.00000000	    -18.74739414	     -6.27444293	    -19.93937686	     23.25665924	     90.00000001	      0.00000000	      0.00000000
      1.32000000	      2.38857399	     -2.14243550	     -7.36770936	     -1.87868164	      0.90014051	      0.05101703	    -14.54067400	     -0.03999964	     -0.64173733	     10.97720820	      3.38602692	      0.19158843	     18.68734502	      5.72825184	     -7.52951071	     21.39162033	     -9.10810085	     -9.20725587	      4.53680730	      4.64211435	      0.07918222	     -8.34741038	    -15.06925815	     -7.52951071	    -14.89328074	     -1.22935977	      2.15020531	      4.23341736	    -20.29222434	      9.48284962	     51.48856191	     90.00000001	      0.00000000	      0.00000000	    -18.42882335	     -6.36229318	    -19.82373558	     22.67777783	     90.00000001	      0.00000000	      0.00000000
      1.33000000	      2.24305465	     -2.23244221	     -7.39049938	     -1.86671659	      0.89787070	      0.04980707	    -15.04114709	     -0.17259106	     -0.57940099	     11.30496189	      3.39617286	      0.19730881	     18.64229910	      5.74220133	     -7.52937329	     21.70743085	     -9.20710924	     -9.15551955	      4.76949082	      4.59687887	      0.08324332	     -8.35102888	    -14.75603997	     -7.52937329	    -14.68509475	     -1.23548278	      2.17034681	      4.18546988	    -20.29734278	      9.46948175	     51.48405048	     90.00000001	      0.00000000	      0.00000000	    -18.42183997	     -6.38425749	    -19.80698020	     22.73706659	     90.00000001	      0.00000000	      0.00000000
      1.34000000	      2.14150510	     -2.36817194	     -7.43706419	     -1.85477166	      0.89597520	      0.04854337	    -15.61130195	     -0.32367907	      0.84118547	     11.64176477	      3.75951156	      0.20318713	     18.23489980	      3.65525644	     -7.52722127	     22.06296305	     -9.39246933	     -9.01269579	      5.57558392	      4.63748947	      0.09731230	     -8.92575506	    -14.90111010	     -7.52722127	    -14.54241565	     -1.18727392	      2.42030911	      4.04688136	    -20.10412450	      8.85207173	     50.60160529	     90.00000001	      0.00000000	      0.00000000	    -17.44489802	     -6.53394526	    -19.92119525	     20.80731465	     90.00000001	      0.00000000	      0.00000000
      1.35000000	      2.10186480	     -2.34782036	     -7.44063040	     -1.84243152	      0.89429909	      0.04720940	    -16.11024066	     -0.62341621	      1.13787076	     12.20532094	      3.84628380	      0.21302304	     18.13218790	      3.70924711	     -7.52702704	     22.18743036	     -9.36606801	     -8.49531001	      6.34877987	      4.72933736	      0.11080711	     -9.16791699	    -14.56117325	     -7.52702704	    -14.41756278	     -1.34133765	      2.45166398	      3.72838771	    -20.06399770	      8.88435974	     50.42755705	     90.00000001	      0.00000000	      0.00000000	    -17.38667412	     -6.59561779	    -19.91282062	     20.89721161	     90.00000001	      0.00000000	      0.00000000
      1.36000000	      2.08543052	     -2.25922500	     -7.37769768	     -1.83000708	      0.89295078	      0.04569903	    -16.58701958	     -1.00875013	      1.52448201	     12.84872293	      4.00833271	      0.22425252	     17.94684311	      3.72485488	     -7.52681805	     22.34207708	     -9.22575555	     -7.75656928	      7.41687960	      4.84638122	      0.12944897	     -9.60832069	    -14.34187912	     -7.52681805	    -14.31799934	     -1.55195460	      2.44059543	      3.39238369	    -20.01157758	      8.91079832	     50.14208927	     90.00000001	      0.00000000	      0.00000000	    -17.15889677	     -6.70009465	    -19.86739267	     20.97390925	     90.00000001	      0.00000000	      0.00000000
